<svg xmlns="http://www.w3.org/2000/svg" viewBox="0 0 48 48" role="img" aria-label="flatwalk">
  <title>flatwalk</title>
  <!-- asymmetric double well filled with histogram bars to a flat waterline -->
  <defs><clipPath id="well"><path d="M6.8 19 L38.8 19 L38.8 19.34 L36.7 25.93 L35.4 27.64 L34.1 28.08 L32.8 27.65 L31.5 26.69 L30.2 25.50 L28.9 24.32 L27.6 23.37 L26.3 22.79 L25.0 22.70 L23.7 23.15 L22.4 24.16 L21.1 25.70 L19.8 27.67 L18.5 29.96 L17.2 32.38 L15.9 34.70 L14.6 36.67 L13.3 37.95 L12.0 38.18 L10.7 36.95 L9.4 33.78 L8.1 28.19 L6.8 19.59 Z"/></clipPath></defs>
  <g fill="#14B8A6" clip-path="url(#well)">
      <rect x="8.9" y="19" width="2.6" height="29" rx="0.8"/>
      <rect x="12.3" y="19" width="2.6" height="29" rx="0.8"/>
      <rect x="15.7" y="19" width="2.6" height="29" rx="0.8"/>
      <rect x="19.1" y="19" width="2.6" height="29" rx="0.8"/>
      <rect x="22.5" y="19" width="2.6" height="29" rx="0.8"/>
      <rect x="25.9" y="19" width="2.6" height="29" rx="0.8"/>
      <rect x="29.3" y="19" width="2.6" height="29" rx="0.8"/>
      <rect x="32.7" y="19" width="2.6" height="29" rx="0.8"/>
      <rect x="36.1" y="19" width="2.6" height="29" rx="0.8"/>
  </g>
  <path d="M5.6 8.48 L6.9 20.37 L8.2 28.71 L9.5 34.11 L10.8 37.10 L12.1 38.21 L13.4 37.88 L14.7 36.54 L16.0 34.53 L17.3 32.19 L18.6 29.77 L19.9 27.51 L21.2 25.56 L22.5 24.07 L23.8 23.10 L25.1 22.69 L26.4 22.82 L27.7 23.43 L29.0 24.41 L30.3 25.59 L31.6 26.77 L32.9 27.71 L34.2 28.08 L35.5 27.56 L36.8 25.73 L38.1 22.16 L39.4 16.35 L40.8 6.98" fill="none" stroke="#475569" stroke-width="2.4"
        stroke-linecap="round" stroke-linejoin="round"/>
</svg>
