<svg xmlns="http://www.w3.org/2000/svg" viewBox="35.0 0 125.2 71" role="img" aria-label="flatwalk">
  <title>flatwalk</title>
  <!-- asymmetric double-well -log g(E), filled with histogram bars up to a flat
       waterline; the wordmark rides the waterline inside the wells -->
  <defs><clipPath id="well"><path d="M46.4 30 L146.8 30 L146.8 30.03 L145.2 33.72 L143.9 36.27 L142.6 38.47 L141.3 40.32 L140.0 41.86 L138.7 43.11 L137.4 44.09 L136.1 44.84 L134.8 45.37 L133.5 45.70 L132.2 45.86 L130.9 45.86 L129.6 45.73 L128.3 45.48 L127.0 45.13 L125.7 44.70 L124.4 44.21 L123.1 43.66 L121.8 43.08 L120.5 42.48 L119.2 41.87 L117.9 41.26 L116.6 40.67 L115.3 40.10 L114.0 39.57 L112.7 39.08 L111.4 38.65 L110.1 38.28 L108.8 37.97 L107.5 37.73 L106.2 37.58 L104.9 37.50 L103.6 37.51 L102.3 37.61 L101.0 37.79 L99.7 38.07 L98.4 38.44 L97.1 38.90 L95.8 39.45 L94.5 40.08 L93.2 40.80 L91.9 41.60 L90.6 42.47 L89.3 43.42 L88.0 44.42 L86.7 45.49 L85.4 46.60 L84.1 47.75 L82.8 48.94 L81.5 50.14 L80.2 51.36 L78.9 52.57 L77.6 53.77 L76.3 54.94 L75.0 56.07 L73.7 57.14 L72.4 58.14 L71.1 59.05 L69.8 59.85 L68.5 60.53 L67.2 61.06 L65.9 61.43 L64.6 61.61 L63.3 61.59 L62.0 61.34 L60.7 60.84 L59.4 60.06 L58.1 58.99 L56.8 57.59 L55.5 55.83 L54.2 53.70 L52.9 51.17 L51.6 48.20 L50.3 44.76 L49.0 40.84 L47.7 36.38 L46.4 31.37 Z"/></clipPath></defs>
  <g fill="#14B8A6" clip-path="url(#well)">
      <rect x="44.1" y="30" width="4.6" height="41" rx="1"/>
      <rect x="49.6" y="30" width="4.6" height="41" rx="1"/>
      <rect x="55.1" y="30" width="4.6" height="41" rx="1"/>
      <rect x="60.6" y="30" width="4.6" height="41" rx="1"/>
      <rect x="66.1" y="30" width="4.6" height="41" rx="1"/>
      <rect x="71.6" y="30" width="4.6" height="41" rx="1"/>
      <rect x="77.1" y="30" width="4.6" height="41" rx="1"/>
      <rect x="82.6" y="30" width="4.6" height="41" rx="1"/>
      <rect x="88.1" y="30" width="4.6" height="41" rx="1"/>
      <rect x="93.6" y="30" width="4.6" height="41" rx="1"/>
      <rect x="99.1" y="30" width="4.6" height="41" rx="1"/>
      <rect x="104.6" y="30" width="4.6" height="41" rx="1"/>
      <rect x="110.1" y="30" width="4.6" height="41" rx="1"/>
      <rect x="115.6" y="30" width="4.6" height="41" rx="1"/>
      <rect x="121.1" y="30" width="4.6" height="41" rx="1"/>
      <rect x="126.6" y="30" width="4.6" height="41" rx="1"/>
      <rect x="132.1" y="30" width="4.6" height="41" rx="1"/>
      <rect x="137.6" y="30" width="4.6" height="41" rx="1"/>
      <rect x="143.1" y="30" width="4.6" height="41" rx="1"/>
  </g>
  <path d="M42.0 9.84 L43.3 16.98 L44.6 23.45 L45.9 29.29 L47.2 34.52 L48.5 39.19 L49.8 43.31 L51.1 46.93 L52.4 50.08 L53.7 52.78 L55.0 55.06 L56.3 56.96 L57.6 58.49 L58.9 59.69 L60.2 60.57 L61.5 61.18 L62.8 61.52 L64.1 61.63 L65.4 61.52 L66.7 61.22 L68.0 60.75 L69.3 60.13 L70.6 59.37 L71.9 58.50 L73.2 57.53 L74.5 56.49 L75.8 55.38 L77.1 54.22 L78.4 53.03 L79.7 51.83 L81.0 50.61 L82.3 49.40 L83.6 48.21 L84.9 47.04 L86.2 45.91 L87.5 44.83 L88.8 43.80 L90.1 42.83 L91.4 41.93 L92.7 41.10 L94.0 40.35 L95.3 39.68 L96.6 39.10 L97.9 38.61 L99.2 38.20 L100.5 37.89 L101.8 37.67 L103.1 37.54 L104.4 37.49 L105.7 37.54 L107.0 37.66 L108.3 37.87 L109.6 38.15 L110.9 38.50 L112.2 38.91 L113.5 39.38 L114.8 39.89 L116.1 40.45 L117.4 41.03 L118.7 41.63 L120.0 42.25 L121.3 42.85 L122.6 43.44 L123.9 44.00 L125.2 44.52 L126.5 44.98 L127.8 45.36 L129.1 45.65 L130.4 45.83 L131.7 45.88 L133.0 45.78 L134.3 45.52 L135.6 45.07 L136.9 44.41 L138.2 43.52 L139.5 42.37 L140.8 40.94 L142.1 39.22 L143.4 37.16 L144.7 34.75 L146.0 31.95 L147.3 28.75 L148.6 25.10 L149.9 20.99 L151.2 16.38 L153.2 8.24" fill="none" stroke="#334155" stroke-width="3"
        stroke-linecap="round" stroke-linejoin="round"/>
  <text x="96.6" y="26" text-anchor="middle" font-family="Inter, 'Segoe UI', Helvetica, Arial, sans-serif"
        font-size="25" font-weight="600" letter-spacing="-0.5" fill="#334155">flatwalk</text>
</svg>
