<svg xmlns="http://www.w3.org/2000/svg" viewBox="0 0 48 48" role="img" aria-label="flatwalk">
  <title>flatwalk</title>
  <!-- asymmetric double well filled with histogram bars to a flat line -->
  <g fill="#14B8A6">
    <rect x="6.7" y="19" width="2.6" height="8.6" rx="0.8"/>
    <rect x="10.1" y="19" width="2.6" height="18.8" rx="0.8"/>
    <rect x="13.5" y="19" width="2.6" height="17.4" rx="0.8"/>
    <rect x="16.9" y="19" width="2.6" height="11.5" rx="0.8"/>
    <rect x="20.3" y="19" width="2.6" height="6.1" rx="0.8"/>
    <rect x="23.7" y="19" width="2.6" height="3.7" rx="0.8"/>
    <rect x="27.1" y="19" width="2.6" height="4.9" rx="0.8"/>
    <rect x="30.5" y="19" width="2.6" height="7.9" rx="0.8"/>
    <rect x="33.9" y="19" width="2.6" height="8.8" rx="0.8"/>
    <rect x="37.3" y="19" width="2.6" height="1.2" rx="0.8"/>
  </g>
  <path d="M6 7 C 9 11 3.7 13 6.7 19 L8.2 28.7 L9.7 34.7 L11.2 37.6 L12.7 38.2 L14.2 37.2 L15.7 35.0 L17.2 32.4 L18.7 29.6 L20.2 27.0 L21.7 24.9 L23.2 23.5 L24.7 22.8 L26.2 22.8 L27.7 23.4 L29.2 24.6 L30.7 26.0 L32.2 27.3 L33.7 28.0 L35.2 27.8 L36.7 25.9 L38.2 21.8 L39.9 19 C 42.9 13 39 11 42 7" fill="none" stroke="#475569" stroke-width="2.4"
        stroke-linecap="round" stroke-linejoin="round"/>
  <path d="M6.7 19 L39.9 19" stroke="#14B8A6" stroke-width="2.4" stroke-linecap="round"/>
</svg>
